<svg width="128" height="128" viewBox="0 0 128 128" fill="none" xmlns="http://www.w3.org/2000/svg">
<g clip-path="url(#clip0_1_38)">
<rect width="128" height="128" rx="64" fill="white"/>
<path d="M105.985 34.1221C103.914 27.8141 94.8518 28.2192 91.3564 28.9516L100.03 47.6946C102.36 45.9711 108.057 40.4301 105.985 34.1221Z" fill="#FF7335" stroke="black" stroke-width="4.07643"/>
<path d="M112.854 55.8112C111.979 49.2448 103.029 47.9864 99.4715 48.0663L104.537 68.0372C107.135 66.7723 113.728 62.3775 112.854 55.8112Z" fill="#FF7335" stroke="black" stroke-width="4.07643"/>
<path d="M117.703 78.008C117.275 71.3975 108.43 69.5364 104.875 69.3755L108.579 89.6433C111.256 88.5571 118.131 84.6184 117.703 78.008Z" fill="#FF7335" stroke="black" stroke-width="4.07643"/>
<path d="M121.292 98.3462C120.864 91.7357 112.019 89.8747 108.464 89.7137L112.168 109.982C114.845 108.895 121.72 104.957 121.292 98.3462Z" fill="#FF7335" stroke="black" stroke-width="4.07643"/>
<path d="M97.8168 38.7219C99.1567 42.8374 108.744 87.4938 113.37 109.308C112.213 111.9 108.195 120.713 94.0297 125.69C79.8647 130.667 65.7326 132.714 61.1465 132.076C60.3888 117.84 58.1692 83.2028 57.0206 76.4075C46.1337 77.1253 22.8045 72.8184 21.2492 49.7284C19.885 29.4752 41.7071 11.0857 65.3952 14.5552C89.0833 18.0247 96.1419 33.5775 97.8168 38.7219Z" fill="#FF7335" stroke="black" stroke-width="4.07643"/>
<circle cx="56.0635" cy="40.3968" r="3.46947" fill="black"/>
<circle cx="35.7253" cy="40.3968" r="3.46947" fill="black"/>
<mask id="path-10-outside-1_1_38" maskUnits="userSpaceOnUse" x="10.4904" y="75.1698" width="38" height="45" fill="black">
<rect fill="white" x="10.4904" y="75.1698" width="38" height="45"/>
<path fill-rule="evenodd" clip-rule="evenodd" d="M23.0428 101.454C14.2521 93.6153 19.4169 83.7416 30.9943 80.1698C30.7989 82.8959 30.8031 90.2567 32.0919 91.5576C34.6194 91.7822 41.2185 90.4696 43.5239 90.011C43.7275 89.9705 43.8976 89.9367 44.0285 89.9112C45.7585 97.2304 40.3893 111.261 27.7959 104.712L20.2591 115.822L15.4904 112.586L23.0428 101.454Z"/>
</mask>
<path fill-rule="evenodd" clip-rule="evenodd" d="M23.0428 101.454C14.2521 93.6153 19.4169 83.7416 30.9943 80.1698C30.7989 82.8959 30.8031 90.2567 32.0919 91.5576C34.6194 91.7822 41.2185 90.4696 43.5239 90.011C43.7275 89.9705 43.8976 89.9367 44.0285 89.9112C45.7585 97.2304 40.3893 111.261 27.7959 104.712L20.2591 115.822L15.4904 112.586L23.0428 101.454Z" fill="#FF7335"/>
<path d="M30.9943 80.1698L35.0603 80.4612C35.1565 79.119 34.5841 77.8158 33.5306 76.9785C32.4772 76.1413 31.0784 75.8779 29.7925 76.2746L30.9943 80.1698ZM23.0428 101.454L26.4162 103.743C27.5636 102.051 27.2812 99.7719 25.7558 98.4117L23.0428 101.454ZM32.0919 91.5576L29.1959 94.4265C29.8737 95.1107 30.7718 95.5328 31.7311 95.618L32.0919 91.5576ZM43.5239 90.011L42.7287 86.0129L42.7287 86.0129L43.5239 90.011ZM44.0285 89.9112L47.9956 88.9735C47.4921 86.8434 45.3963 85.4911 43.2479 85.9102L44.0285 89.9112ZM27.7959 104.712L29.6767 101.096C27.842 100.141 25.5835 100.712 24.4225 102.424L27.7959 104.712ZM20.2591 115.822L17.9705 119.195C19.8336 120.459 22.3686 119.973 23.6325 118.11L20.2591 115.822ZM15.4904 112.586L12.1171 110.298C11.5101 111.193 11.2834 112.292 11.4868 113.354C11.6903 114.415 12.3072 115.353 13.2019 115.96L15.4904 112.586ZM29.7925 76.2746C23.2843 78.2824 17.8817 82.2656 15.6234 87.6302C13.1938 93.4018 14.8674 99.6258 20.3297 104.497L25.7558 98.4117C22.4274 95.4437 22.2881 92.8114 23.1376 90.7934C24.1584 88.3686 27.1268 85.629 32.196 84.0651L29.7925 76.2746ZM34.9879 88.6887C35.427 89.1319 35.5329 89.508 35.4877 89.3863C35.4691 89.3363 35.4152 89.1652 35.3503 88.8324C35.2213 88.1709 35.1199 87.2466 35.056 86.159C34.9286 83.9917 34.9753 81.6472 35.0603 80.4612L26.9283 79.8785C26.8179 81.4185 26.769 84.1174 26.9171 86.6373C26.9909 87.8932 27.12 89.2234 27.3482 90.3931C27.4618 90.9759 27.6181 91.6147 27.8457 92.2269C28.0466 92.7674 28.4346 93.658 29.1959 94.4265L34.9879 88.6887ZM42.7287 86.0129C41.5737 86.2426 39.4188 86.6709 37.2528 87.0144C34.9017 87.3872 33.1273 87.5571 32.4527 87.4972L31.7311 95.618C33.584 95.7827 36.3729 95.4086 38.5296 95.0666C40.8713 94.6953 43.1687 94.238 44.3192 94.0091L42.7287 86.0129ZM43.2479 85.9102C43.108 85.9375 42.9293 85.973 42.7287 86.0129L44.3192 94.0091C44.5257 93.9681 44.6872 93.9359 44.809 93.9122L43.2479 85.9102ZM25.9151 108.329C29.7044 110.299 33.3895 110.937 36.7885 110.168C40.1771 109.4 42.749 107.355 44.5458 104.957C47.9866 100.364 49.1324 93.7829 47.9956 88.9735L40.0613 90.8489C40.6546 93.3586 39.9807 97.4526 38.0211 100.068C37.1177 101.274 36.0942 101.966 34.9882 102.216C33.8927 102.464 32.1841 102.4 29.6767 101.096L25.9151 108.329ZM24.4225 102.424L16.8857 113.533L23.6325 118.11L31.1693 107.001L24.4225 102.424ZM22.5477 112.448L17.779 109.213L13.2019 115.96L17.9705 119.195L22.5477 112.448ZM18.8638 114.875L26.4162 103.743L19.6694 99.1656L12.1171 110.298L18.8638 114.875Z" fill="black" mask="url(#path-10-outside-1_1_38)"/>
<path d="M56.1832 76.6467C58.2569 76.4075 63.3135 75.6418 66.9505 74.4933" stroke="black" stroke-width="4.07643" stroke-linecap="round"/>
</g>
<rect x="2" y="2" width="124" height="124" rx="62" stroke="black" stroke-width="4"/>
<defs>
<clipPath id="clip0_1_38">
<rect width="128" height="128" rx="64" fill="white"/>
</clipPath>
</defs>
</svg>
